<svg width="49" height="49" viewBox="0 0 49 49" fill="none" xmlns="http://www.w3.org/2000/svg">
<g clip-path="url(#clip0_137_1717)">
<path d="M0 10.2018C0.26196 9.43519 0.416198 8.60708 0.807914 7.91309C1.97082 5.85328 3.79108 4.79999 6.15117 4.78399C9.6913 4.76061 13.2314 4.77415 16.7716 4.77907C17.5966 4.7803 18.1499 5.27987 18.156 5.98863C18.1634 6.706 17.5795 7.2191 16.7422 7.22034C13.2657 7.2228 9.78923 7.21664 6.31275 7.2228C4.41782 7.22649 3.0407 8.2564 2.56941 10.0332C2.47271 10.3987 2.447 10.7924 2.447 11.1739C2.44088 21.6415 2.43966 32.1079 2.44455 42.5756C2.44578 44.537 3.42017 45.909 5.16086 46.3938C5.5538 46.5033 5.97734 46.5463 6.38742 46.5463C17.6138 46.5537 28.8401 46.5537 40.0664 46.5513C42.4534 46.55 44.0044 44.9787 44.0068 42.5658C44.0117 39.0872 44.0068 35.6086 44.0093 32.1301C44.0093 31.4299 44.3741 30.9168 44.9396 30.7889C45.6851 30.6203 46.4024 31.1605 46.4232 31.9455C46.4489 32.9225 46.4343 33.9007 46.433 34.879C46.4294 37.6525 46.4661 40.426 46.4073 43.1982C46.3424 46.2646 43.7486 48.8424 40.6956 48.9741C40.4728 48.9839 40.2488 48.9925 40.026 48.9925C28.8156 48.9938 17.6052 48.9888 6.39476 48.9975C3.93919 48.9999 2.03203 48.0081 0.810362 45.8634C0.416198 45.1756 0.263184 44.3462 0 43.5809C0 32.4537 0 21.3277 0 10.2018Z" fill="white"/>
<path d="M42.107 -0.00012207C43.4682 0.0269484 44.7034 0.472381 45.7353 1.42108C46.2996 1.93911 46.8382 2.48913 47.3695 3.04161C49.5031 5.26139 49.5459 8.47663 47.4796 10.7592C47.3511 10.9019 47.2152 11.0372 47.0806 11.1738C40.0444 18.2466 33.007 25.3182 25.9769 32.3971C25.5791 32.797 25.142 33.0517 24.5998 33.2006C21.4207 34.0718 18.2478 34.9639 15.0725 35.8523C14.6502 35.9704 14.2364 36.0565 13.8239 35.8166C13.3147 35.52 13.1041 34.9848 13.2841 34.3215C14.032 31.5739 14.8619 28.8472 15.5168 26.0774C15.9098 24.4199 16.7116 23.1501 17.9137 21.9565C24.6316 15.2898 31.2883 8.5603 37.9561 1.8419C39.103 0.687714 40.441 0.0244874 42.107 -0.00012207ZM36.9327 6.54847C31.0423 12.4695 25.1188 18.4238 19.2406 24.3325C21.0829 26.1844 22.9741 28.0855 24.7895 29.9115C30.6812 23.9892 36.6046 18.035 42.484 12.125C40.6418 10.2744 38.7493 8.3745 36.9327 6.54847ZM38.6269 4.54279C40.6038 6.53247 42.5 8.44217 44.4512 10.406C44.7988 10.0369 45.1734 9.64558 45.5406 9.24936C45.6924 9.08571 45.843 8.91837 45.9752 8.73995C46.7342 7.71988 46.7599 6.13749 45.9422 5.16295C45.3191 4.42098 44.6336 3.71222 43.8881 3.09699C42.9468 2.32056 41.8083 2.19259 40.7629 2.80044C39.9697 3.26187 39.316 3.96816 38.6269 4.54279ZM17.9137 26.6815C17.3408 28.7659 16.7703 30.8381 16.1766 32.9939C18.3225 32.3946 20.3864 31.8188 22.4514 31.2429C20.925 29.7085 19.4401 28.2159 17.9137 26.6815Z" fill="white"/>
</g>
<defs>
<clipPath id="clip0_137_1717">
<rect width="49" height="49" fill="white"/>
</clipPath>
</defs>
</svg>
