<svg width="18" height="18" viewBox="0 0 18 18" fill="none" xmlns="http://www.w3.org/2000/svg">
<circle opacity="0.3" cx="9" cy="9" r="9" fill="#EB242A"/>
<path opacity="0.33" d="M9.18115 11.7407H7.31348C7.31836 11.3013 7.35254 10.9229 7.41602 10.6055C7.48438 10.2832 7.59912 9.99268 7.76025 9.73389C7.92627 9.4751 8.146 9.21875 8.41943 8.96484C8.64893 8.75977 8.84912 8.56445 9.02002 8.37891C9.19092 8.19336 9.3252 8.00293 9.42285 7.80762C9.52051 7.60742 9.56934 7.38525 9.56934 7.14111C9.56934 6.85791 9.52539 6.62354 9.4375 6.43799C9.35449 6.24756 9.22754 6.10352 9.05664 6.00586C8.89062 5.9082 8.68066 5.85938 8.42676 5.85938C8.2168 5.85938 8.02148 5.90576 7.84082 5.99854C7.66016 6.08643 7.51123 6.22314 7.39404 6.40869C7.28174 6.59424 7.22314 6.83838 7.21826 7.14111H5.09424C5.10889 6.47217 5.2627 5.92041 5.55566 5.48584C5.85352 5.04639 6.25146 4.72168 6.74951 4.51172C7.24756 4.29688 7.80664 4.18945 8.42676 4.18945C9.11035 4.18945 9.69629 4.30176 10.1846 4.52637C10.6729 4.74609 11.0464 5.0708 11.3052 5.50049C11.564 5.92529 11.6934 6.44287 11.6934 7.05322C11.6934 7.47803 11.6104 7.85645 11.4443 8.18848C11.2783 8.51562 11.061 8.8208 10.7925 9.104C10.5239 9.38721 10.2285 9.68018 9.90625 9.98291C9.62793 10.2319 9.4375 10.4932 9.33496 10.7666C9.2373 11.04 9.18604 11.3647 9.18115 11.7407ZM7.09375 14.0039C7.09375 13.6914 7.20117 13.4326 7.41602 13.2275C7.63086 13.0176 7.91895 12.9126 8.28027 12.9126C8.63672 12.9126 8.92236 13.0176 9.13721 13.2275C9.35693 13.4326 9.4668 13.6914 9.4668 14.0039C9.4668 14.3066 9.35693 14.563 9.13721 14.7729C8.92236 14.9829 8.63672 15.0879 8.28027 15.0879C7.91895 15.0879 7.63086 14.9829 7.41602 14.7729C7.20117 14.563 7.09375 14.3066 7.09375 14.0039Z" fill="white"/>
</svg>
