<svg width="71" height="71" viewBox="0 0 71 71" fill="none" xmlns="http://www.w3.org/2000/svg">
<g filter="url(#filter0_d_2391_2)">
<circle cx="33.2208" cy="30.2208" r="27.2208" fill="#299EF3"/>
</g>
<path d="M42.7895 40.0929C43.1575 40.0935 43.5116 40.2337 43.7803 40.4853C44.049 40.7368 44.2122 41.0809 44.2371 41.4481C44.2619 41.8153 44.1465 42.1783 43.9142 42.4637C43.6818 42.7492 43.3498 42.9358 42.9852 42.986L42.7895 42.9995H22.4529C22.0846 42.9994 21.7302 42.8595 21.4611 42.6082C21.1921 42.3568 21.0285 42.0126 21.0034 41.6453C20.9783 41.2779 21.0936 40.9147 21.3259 40.6291C21.5583 40.3435 21.8904 40.1567 22.2552 40.1065L22.4529 40.0929H42.7895ZM32.6338 15.0467C32.985 15.0467 33.3243 15.1739 33.5889 15.4047C33.8536 15.6356 34.0257 15.9544 34.0735 16.3024L34.0871 16.5L34.0851 33.2042L39.8325 27.4492C40.0784 27.2022 40.4049 27.0519 40.7524 27.0256C41.0999 26.9993 41.4453 27.0987 41.7256 27.3058L41.8884 27.4453C42.1351 27.6915 42.285 28.0181 42.311 28.3656C42.337 28.7131 42.2372 29.0584 42.0299 29.3385L41.8904 29.5012L33.6685 37.7366L33.5329 37.8587L33.3546 37.973L33.2848 38.0137L33.1085 38.0874L32.876 38.1455L32.7403 38.161L32.6241 38.1649C32.5264 38.1647 32.429 38.1543 32.3334 38.1339L32.1745 38.0893C31.9911 38.0297 31.8216 37.9334 31.6765 37.8064L23.3636 29.5032C23.1029 29.2442 22.95 28.896 22.9357 28.5288C22.9213 28.1616 23.0466 27.8026 23.2863 27.5241C23.5261 27.2456 23.8624 27.0682 24.2276 27.0277C24.5929 26.9872 24.9599 27.0865 25.2548 27.3058L25.4176 27.4472L31.1785 33.1965V16.5C31.1785 16.1146 31.3316 15.7449 31.6042 15.4724C31.8767 15.1998 32.2464 15.0467 32.6318 15.0467H32.6338Z" fill="white"/>
<defs>
<filter id="filter0_d_2391_2" x="0" y="0" width="70.4417" height="70.4417" filterUnits="userSpaceOnUse" color-interpolation-filters="sRGB">
<feFlood flood-opacity="0" result="BackgroundImageFix"/>
<feColorMatrix in="SourceAlpha" type="matrix" values="0 0 0 0 0 0 0 0 0 0 0 0 0 0 0 0 0 0 127 0" result="hardAlpha"/>
<feOffset dx="2" dy="5"/>
<feGaussianBlur stdDeviation="4"/>
<feComposite in2="hardAlpha" operator="out"/>
<feColorMatrix type="matrix" values="0 0 0 0 0 0 0 0 0 0 0 0 0 0 0 0 0 0 0.08 0"/>
<feBlend mode="normal" in2="BackgroundImageFix" result="effect1_dropShadow_2391_2"/>
<feBlend mode="normal" in="SourceGraphic" in2="effect1_dropShadow_2391_2" result="shape"/>
</filter>
</defs>
</svg>
