<svg width="27" height="27" viewBox="0 0 27 27" fill="none" xmlns="http://www.w3.org/2000/svg">
<g clip-path="url(#clip0_132_11)">
<path fill-rule="evenodd" clip-rule="evenodd" d="M22.2844 19.5368C21.6047 18.6706 20.5008 17.4154 19.5558 17.2965C18.9809 17.2241 18.3202 17.7063 17.669 18.1611C17.542 18.2254 16.5604 18.8168 16.4413 18.8522C15.8124 19.0338 14.4703 19.0868 13.6587 18.3379C12.8773 17.6147 11.6417 16.2759 10.6443 15.0497C9.69132 13.7865 8.69232 12.2677 8.18091 11.3356C7.64726 10.3697 8.03161 9.09199 8.36197 8.52949C8.42232 8.42824 9.15291 7.66807 9.3165 7.49128L9.34032 7.52021C9.94544 7.00592 10.5791 6.4836 10.6506 5.91789C10.7681 4.9761 9.81679 3.60521 9.13702 2.73735C8.45726 1.86789 7.40426 0.345923 5.97008 0.56128C5.43008 0.641637 4.96473 0.832887 4.50573 1.10771L4.49303 1.09324L4.41679 1.15271L4.37708 1.1736L4.38185 1.18003C4.1182 1.38574 3.36538 1.95467 3.27961 2.03182C2.34891 2.86914 0.948085 4.8411 2.03126 8.38807C2.83491 11.0238 4.54861 14.1191 6.88332 17.2498L6.87061 17.2611C6.98497 17.4122 7.1025 17.5488 7.22161 17.695C7.33279 17.8445 7.44238 17.9923 7.55673 18.1402L7.57261 18.129C10.0503 21.1488 12.6486 23.5627 15.0198 24.9866C18.2122 26.9023 20.4818 26.0393 21.53 25.3531C21.6285 25.2872 22.3781 24.6974 22.6323 24.5029L22.6386 24.5093C22.6481 24.4997 22.6545 24.4868 22.6672 24.4772C22.6901 24.4597 22.7129 24.442 22.7355 24.4241L22.726 24.4113C23.1103 24.0352 23.4184 23.6334 23.6313 23.1272C24.1887 21.7949 22.9642 20.4063 22.2844 19.5368Z" fill="white"/>
</g>
<defs>
<clipPath id="clip0_132_11">
<rect width="27" height="25.7143" fill="white" transform="translate(0 0.488892)"/>
</clipPath>
</defs>
</svg>
