<svg width="226" height="41" viewBox="0 0 226 41" fill="none" xmlns="http://www.w3.org/2000/svg">
<path d="M41.419 8.16547C41.4138 8.16721 41.4086 8.17068 41.4051 8.17242C39.0102 9.26831 29.5605 13.6519 27.103 15.7568C25.4913 17.1375 23.1293 20.8437 22.4502 22.8532C21.3387 26.1495 21.2345 37.6572 21.2258 40.4673C21.2258 40.4812 21.2258 40.4933 21.2258 40.5072C21.2258 40.5767 21.2258 40.6392 21.2258 40.6965C22.6413 39.6979 27.499 36.2314 34.7325 30.6512C37.2734 28.6921 37.4714 27.525 38.2859 23.9282C39.816 17.1566 41.2019 10.0238 41.5719 8.09253C41.5232 8.11858 41.4763 8.13942 41.419 8.16547Z" fill="#EB242A"/>
<path d="M0.704852 7.2957C3.59828 8.5479 13.3675 12.7265 16.5822 13.4629C18.7323 13.9561 23.2409 13.9301 25.4101 13.5185C28.703 12.8932 38.4774 8.57743 41.0218 7.43985C41.0339 7.43464 41.0496 7.4277 41.0617 7.42249C41.0912 7.41033 41.1156 7.39817 41.1433 7.38601C39.8373 6.88409 35.7195 5.2776 24.8492 0.900989C22.1485 -0.186216 19.6285 -0.384206 16.6065 0.831519C6.02799 5.08656 1.97094 6.69653 0.581543 7.24186C0.607594 7.25229 0.631909 7.26444 0.65796 7.27486C0.675327 7.28355 0.689221 7.28876 0.704852 7.2957Z" fill="#EB242A"/>
<path d="M20.3547 40.452C20.3113 37.6176 20.0873 26.1759 19.2067 22.817C18.6979 20.8771 16.5773 17.2976 15.1358 15.903C12.7669 13.614 2.79617 9.10362 0.147624 7.9261C0.0955213 7.90353 0.0468923 7.88095 0 7.86011C0.284827 9.58991 0.435924 10.8421 2.93684 22.9577C4.05357 28.3729 4.14736 28.9807 6.95395 30.9919C16.2942 37.6871 19.3787 39.9448 20.3582 40.6725C20.3582 40.6152 20.3564 40.5527 20.3547 40.4832C20.3564 40.4728 20.3564 40.4624 20.3547 40.452Z" fill="#EB242A"/>
<path d="M65.2186 14.3196H68.8033C69.0343 14.3196 69.2236 14.5072 69.2236 14.7399V30.2074C69.2236 30.4384 69.036 30.6277 68.8033 30.6277H65.6077C65.4774 30.6277 65.3541 30.5669 65.2759 30.4644L59.1487 22.5188C58.9038 22.201 58.3967 22.3746 58.3967 22.7758V30.2091C58.3967 30.4401 58.2091 30.6294 57.9764 30.6294H54.3917C54.1607 30.6294 53.9714 30.4418 53.9714 30.2091V14.7399C53.9714 14.5089 54.159 14.3196 54.3917 14.3196H57.6099C57.7402 14.3196 57.8635 14.3804 57.9434 14.4828L64.0481 22.425C64.2929 22.7428 64.8001 22.5709 64.8001 22.1697V14.7399C64.8001 14.5089 64.9876 14.3196 65.2186 14.3196Z" fill="#EB242A"/>
<path d="M87.539 16.3947C89.3 18.088 90.1806 20.1148 90.1806 22.4715C90.1806 24.8318 89.2983 26.8551 87.539 28.5519C85.7762 30.247 83.6296 31.0945 81.1008 31.0945C78.5721 31.0945 76.4273 30.2487 74.6627 28.5519C72.9016 26.8568 72.0211 24.8318 72.0211 22.4715C72.0211 20.1148 72.9034 18.088 74.6627 16.3947C76.4255 14.6996 78.5721 13.8521 81.1008 13.8521C83.6296 13.8538 85.7744 14.6996 87.539 16.3947ZM77.8635 19.1457C76.9934 20.0297 76.5558 21.1395 76.5558 22.4715C76.5558 23.8071 76.9917 24.9186 77.8635 25.8061C78.7371 26.6936 79.8174 27.1347 81.1061 27.1347C82.3947 27.1347 83.475 26.6918 84.3434 25.8061C85.2117 24.9204 85.6459 23.8071 85.6459 22.4715C85.6459 21.1395 85.2117 20.0297 84.3434 19.1457C83.475 18.2634 82.3947 17.8223 81.1061 17.8223C79.8174 17.8223 78.7371 18.2651 77.8635 19.1457Z" fill="#EB242A"/>
<path d="M96.1345 30.3478L90.6116 14.8803C90.5144 14.6077 90.7159 14.3194 91.0076 14.3194H94.8788C95.0629 14.3194 95.2245 14.4392 95.28 14.6129L98.2916 24.2154C98.4149 24.6079 98.9706 24.6079 99.0922 24.2154L102.092 14.6129C102.147 14.4375 102.309 14.3176 102.493 14.3176H106.364C106.654 14.3176 106.857 14.6059 106.76 14.8786L101.237 30.3461C101.178 30.5128 101.02 30.624 100.841 30.624H96.5288C96.3516 30.6274 96.1936 30.5163 96.1345 30.3478Z" fill="#EB242A"/>
<path d="M116.31 27.1367H111.557C111.376 27.1367 111.215 27.2531 111.159 27.425L110.192 30.341C110.134 30.513 109.975 30.6293 109.794 30.6293H105.928C105.634 30.6293 105.431 30.3358 105.535 30.0614L111.392 14.5939C111.454 14.4307 111.611 14.323 111.784 14.323H116.097C116.27 14.323 116.427 14.4307 116.489 14.5939L122.345 30.0614C122.45 30.3358 122.246 30.6293 121.953 30.6293H118.085C117.905 30.6293 117.745 30.5147 117.688 30.3428L116.71 27.425C116.652 27.2514 116.491 27.1367 116.31 27.1367ZM114.879 23.6441C115.162 23.6441 115.365 23.368 115.279 23.0971L113.941 18.8681L112.601 23.0953C112.515 23.3663 112.717 23.6424 113 23.6424H114.879V23.6441Z" fill="#EB242A"/>
<path d="M132.594 30.6291H125.211C124.98 30.6291 124.791 30.4416 124.791 30.2088V14.7413C124.791 14.5104 124.978 14.321 125.211 14.321H132.129C133.805 14.321 135.152 14.7483 136.177 15.6045C137.198 16.4625 137.712 17.4715 137.712 18.6299C137.712 19.0797 137.639 19.5035 137.495 19.9099C137.353 20.3163 137.177 20.6393 136.974 20.8808C136.769 21.1256 136.566 21.3358 136.366 21.5129C136.165 21.6901 135.988 21.8203 135.837 21.895L135.621 22.0079C135.696 22.0374 135.802 22.0808 135.934 22.1399C136.066 22.1972 136.3 22.3275 136.634 22.5376C136.967 22.7443 137.262 22.9822 137.521 23.2479C137.78 23.5137 138.011 23.8766 138.221 24.3404C138.428 24.8023 138.534 25.306 138.534 25.8513C138.534 27.1261 137.98 28.2394 136.868 29.1946C135.755 30.1498 134.329 30.6291 132.594 30.6291ZM129.216 26.718C129.216 26.949 129.404 27.1383 129.636 27.1383H132.242C132.757 27.1383 133.178 26.982 133.502 26.6728C133.827 26.3602 133.992 25.9729 133.992 25.5057C133.992 25.0403 133.829 24.6512 133.502 24.3404C133.178 24.0277 132.757 23.8732 132.242 23.8732H129.636C129.405 23.8732 129.216 24.0607 129.216 24.2935V26.718ZM131.661 17.8241H129.636C129.405 17.8241 129.216 18.0116 129.216 18.2444V20.1913C129.216 20.4222 129.404 20.6116 129.636 20.6116H131.661C132.123 20.6116 132.493 20.4848 132.764 20.2295C133.039 19.9759 133.176 19.6372 133.176 19.2187C133.176 18.7984 133.039 18.4597 132.764 18.2079C132.492 17.9509 132.123 17.8241 131.661 17.8241Z" fill="#EB242A"/>
<path d="M141.323 30.2088V14.7413C141.323 14.5104 141.511 14.321 141.743 14.321H149.013C150.734 14.321 152.152 14.856 153.27 15.9293C154.389 17.0026 154.948 18.3312 154.948 19.9151C154.948 20.5664 154.851 21.176 154.658 21.7404C154.465 22.3049 154.232 22.7616 153.958 23.1142C153.687 23.4668 153.413 23.7672 153.14 24.0121C152.865 24.2587 152.64 24.4289 152.457 24.5175L152.15 24.6894L155.17 29.997C155.33 30.2766 155.127 30.6239 154.805 30.6239H151.123C150.971 30.6239 150.828 30.5406 150.755 30.4051L148.197 25.7141C148.124 25.5787 147.982 25.4953 147.829 25.4953H146.167C145.936 25.4953 145.747 25.6829 145.747 25.9156V30.2054C145.747 30.4363 145.559 30.6257 145.326 30.6257H141.742C141.511 30.6291 141.323 30.4416 141.323 30.2088ZM150.035 21.0753C150.359 20.7661 150.524 20.3754 150.524 19.9099C150.524 19.4445 150.361 19.0572 150.035 18.7515C149.71 18.4424 149.289 18.2895 148.774 18.2895H146.169C145.938 18.2895 145.748 18.4771 145.748 18.7098V21.1239C145.748 21.3549 145.936 21.5442 146.169 21.5442H148.774C149.289 21.5442 149.708 21.3879 150.035 21.0753Z" fill="#EB242A"/>
<path d="M172.959 16.3966C174.724 18.0917 175.603 20.1184 175.603 22.4752C175.603 24.8337 174.724 26.8588 172.959 28.5538C171.198 30.2489 169.052 31.0947 166.523 31.0947C163.994 31.0947 161.849 30.2472 160.087 28.5538C158.322 26.8588 157.443 24.8337 157.443 22.4752C157.443 20.1184 158.322 18.0917 160.087 16.3966C161.848 14.7015 163.994 13.8557 166.523 13.8557C169.052 13.854 171.198 14.7015 172.959 16.3966ZM163.287 19.1493C162.416 20.0316 161.98 21.1396 161.98 22.4735C161.98 23.8108 162.416 24.9188 163.287 25.8063C164.159 26.6938 165.24 27.1384 166.528 27.1384C167.817 27.1384 168.895 26.6938 169.764 25.8063C170.632 24.9188 171.066 23.8108 171.066 22.4735C171.066 21.1396 170.634 20.0316 169.764 19.1493C168.895 18.2653 167.817 17.8242 166.528 17.8242C165.24 17.8242 164.159 18.2653 163.287 19.1493Z" fill="#EB242A"/>
<path d="M184.212 24.8649L182.931 26.315C182.863 26.3915 182.825 26.4905 182.825 26.5929V30.2106C182.825 30.4416 182.637 30.6309 182.404 30.6309H178.82C178.589 30.6309 178.399 30.4433 178.399 30.2106V14.7413C178.399 14.5104 178.587 14.321 178.82 14.321H182.404C182.635 14.321 182.825 14.5086 182.825 14.7413V19.4705C182.825 19.8613 183.311 20.0402 183.565 19.7432L188.057 14.4704C188.137 14.3766 188.254 14.3228 188.377 14.3228H192.396C192.755 14.3228 192.948 14.7448 192.714 15.0175L187.696 20.8373C187.573 20.9797 187.561 21.1847 187.663 21.3427L193.349 29.9813C193.533 30.2609 193.334 30.6326 192.999 30.6326H188.874C188.733 30.6326 188.601 30.5614 188.523 30.4433L184.878 24.9152C184.725 24.6808 184.396 24.6564 184.212 24.8649Z" fill="#EB242A"/>
<path d="M201.34 26.8986H208.881C209.112 26.8986 209.302 27.0862 209.302 27.3189V30.2088C209.302 30.4398 209.114 30.6291 208.881 30.6291H196.917C196.686 30.6291 196.496 30.4416 196.496 30.2088V14.7413C196.496 14.5104 196.684 14.321 196.917 14.321H208.655C208.886 14.321 209.076 14.5086 209.076 14.7413V17.6313C209.076 17.8623 208.888 18.0516 208.655 18.0516H201.34C201.109 18.0516 200.92 18.2392 200.92 18.4719V20.1895C200.92 20.4205 201.108 20.6098 201.34 20.6098H206.788C207.019 20.6098 207.209 20.7974 207.209 21.0301V23.6925C207.209 23.9235 207.021 24.1128 206.788 24.1128H201.34C201.109 24.1128 200.92 24.3004 200.92 24.5331V26.48C200.92 26.711 201.108 26.8986 201.34 26.8986Z" fill="#EB242A"/>
<path d="M212.097 30.2088V14.7413C212.097 14.5104 212.285 14.321 212.518 14.321H219.788C221.509 14.321 222.926 14.856 224.044 15.9293C225.163 17.0026 225.722 18.3312 225.722 19.9151C225.722 20.5664 225.625 21.176 225.432 21.7404C225.239 22.3049 225.007 22.7616 224.732 23.1142C224.461 23.4668 224.187 23.7672 223.914 24.0121C223.64 24.2587 223.414 24.4289 223.232 24.5175L222.924 24.6894L225.944 29.997C226.104 30.2766 225.901 30.6239 225.58 30.6239H221.898C221.745 30.6239 221.603 30.5406 221.53 30.4051L218.971 25.7141C218.898 25.5787 218.756 25.4953 218.603 25.4953H216.941C216.71 25.4953 216.521 25.6829 216.521 25.9156V30.2054C216.521 30.4363 216.333 30.6257 216.101 30.6257H212.516C212.285 30.6291 212.097 30.4416 212.097 30.2088ZM220.809 21.0753C221.134 20.7661 221.299 20.3754 221.299 19.9099C221.299 19.4445 221.135 19.0572 220.809 18.7515C220.484 18.4424 220.064 18.2895 219.548 18.2895H216.943C216.712 18.2895 216.523 18.4771 216.523 18.7098V21.1239C216.523 21.3549 216.71 21.5442 216.943 21.5442H219.548C220.064 21.5442 220.484 21.3879 220.809 21.0753Z" fill="#EB242A"/>
</svg>
